HIERARCHY
ROOT Hips
{
	OFFSET -0.001795 -0.223333 0.028219
	CHANNELS 6 Xposition Yposition Zposition Zrotation Yrotation Xrotation 
	JOINT LeftUpLeg
	{
		OFFSET 0.069520 -0.091406 -0.006815
		CHANNELS 3 Zrotation Yrotation Xrotation
		JOINT LeftLeg
		{
			OFFSET 0.034277 -0.375199 -0.004496
			CHANNELS 3 Zrotation Yrotation Xrotation
			JOINT LeftFoot
			{
				OFFSET -0.013596 -0.397961 -0.043693
				CHANNELS 3 Zrotation Yrotation Xrotation
				JOINT LeftToe
				{
					OFFSET 0.026358 -0.055791 0.119288
					CHANNELS 3 Zrotation Yrotation Xrotation
					End Site
					{
						OFFSET 0.000000 0.000000 0.000000
					}
				}
			}
		}
	}
	JOINT RightUpLeg
	{
		OFFSET -0.067670 -0.090522 -0.004320
		CHANNELS 3 Zrotation Yrotation Xrotation
		JOINT RightLeg
		{
			OFFSET -0.038290 -0.382569 -0.008850
			CHANNELS 3 Zrotation Yrotation Xrotation
			JOINT RightFoot
			{
				OFFSET 0.015774 -0.398415 -0.042312
				CHANNELS 3 Zrotation Yrotation Xrotation
				JOINT RightToe
				{
					OFFSET -0.025372 -0.048144 0.123348
					CHANNELS 3 Zrotation Yrotation Xrotation
					End Site
					{
						OFFSET 0.000000 0.000000 0.000000
					}
				}
			}
		}
	}
	JOINT Spine
	{
		OFFSET -0.002533 0.108963 -0.026696
		CHANNELS 3 Zrotation Yrotation Xrotation
		JOINT Spine1
		{
			OFFSET 0.005487 0.135180 0.001092
			CHANNELS 3 Zrotation Yrotation Xrotation
			JOINT Spine2
			{
				OFFSET 0.001457 0.052922 0.025425
				CHANNELS 3 Zrotation Yrotation Xrotation
				JOINT Neck
				{
					OFFSET -0.002778 0.213870 -0.042857
					CHANNELS 3 Zrotation Yrotation Xrotation
					JOINT Head
					{
						OFFSET 0.005152 0.064970 0.051349
						CHANNELS 3 Zrotation Yrotation Xrotation
						End Site
						{
							OFFSET 0.000000 0.000000 0.000000
						}
					}
				}
				JOINT LeftShoulder
				{
					OFFSET 0.078845 0.121749 -0.034090
					CHANNELS 3 Zrotation Yrotation Xrotation
					JOINT LeftArm
					{
						OFFSET 0.090977 0.030469 -0.008868
						CHANNELS 3 Zrotation Yrotation Xrotation
						JOINT LeftForeArm
						{
							OFFSET 0.259612 -0.012772 -0.027456
							CHANNELS 3 Zrotation Yrotation Xrotation
							JOINT LeftHand
							{
								OFFSET 0.249234 0.008986 -0.001171
								CHANNELS 3 Zrotation Yrotation Xrotation
								End Site
								{
									OFFSET 0.000000 0.000000 0.000000
								}
							}
						}
					}
				}
				JOINT RightShoulder
				{
					OFFSET -0.081759 0.118833 -0.038615
					CHANNELS 3 Zrotation Yrotation Xrotation
					JOINT RightArm
					{
						OFFSET -0.096012 0.032551 -0.009143
						CHANNELS 3 Zrotation Yrotation Xrotation
						JOINT RightForeArm
						{
							OFFSET -0.253742 -0.013329 -0.021401
							CHANNELS 3 Zrotation Yrotation Xrotation
							JOINT RightHand
							{
								OFFSET -0.255298 0.007772 -0.005559
								CHANNELS 3 Zrotation Yrotation Xrotation
								End Site
								{
									OFFSET 0.000000 0.000000 0.000000
								}
							}
						}
					}
				}
			}
		}
	}
}
MOTION
Frames: 7
Frame Time: 0.050000
-0.181464 0.962117 -0.787336 -1.309278 -10.546318 1.010834 10.640206 0.165631 -3.080795 -1.451372 0.161879 2.119743 11.744122 21.381829 23.414168 0.000000 0.000000 0.000000 -9.691218 0.645362 -7.458082 2.734522 -0.053090 6.756634 -4.482184 -14.685037 13.102731 0.000000 0.000000 0.000000 5.958910 -0.640019 6.707524 -2.786349 1.261632 -30.334267 -1.141260 16.146068 28.474264 12.092189 -3.464060 -28.327683 0.000000 0.000000 0.000000 23.245946 7.765449 1.302038 1.735174 -12.123306 -0.802002 25.209724 -4.985214 -1.723186 0.000000 0.000000 0.000000 -11.782487 -15.152572 -4.754874 2.604057 0.676509 -0.440444 -11.252124 14.800381 -0.461907 0.000000 0.000000 0.000000 
-0.181184 0.962802 -0.777435 -1.468085 -10.646726 1.261902 10.732138 0.164703 -2.066652 -1.325826 0.159402 0.928629 11.225655 20.789577 22.412452 0.000000 0.000000 0.000000 -9.781072 0.625563 -6.151097 2.955901 -0.104522 6.029286 -5.352597 -15.968405 12.187649 0.000000 0.000000 0.000000 6.383833 -0.566905 5.517923 -2.494314 1.268065 -31.749389 -0.435250 16.762851 27.981380 10.471973 -2.624401 -27.074718 0.000000 0.000000 0.000000 27.272765 10.717565 1.660850 6.013496 -11.471139 -0.635551 23.663737 1.189706 -0.502001 0.000000 0.000000 0.000000 -17.544218 -16.357756 -4.589313 -2.275346 -2.003875 0.489623 -11.124503 7.092437 -0.006746 0.000000 0.000000 0.000000 
-0.181578 0.962134 -0.769177 -1.736314 -10.009400 1.322746 11.108785 0.156399 -1.549463 -0.978800 0.107673 0.996070 10.937721 20.562671 21.360046 0.000000 0.000000 0.000000 -9.746903 0.587307 -4.973463 2.924738 -0.120391 5.602187 -5.482303 -15.973212 11.409401 0.000000 0.000000 0.000000 6.391972 -0.473681 4.411961 -2.499981 1.318098 -33.216356 0.191430 16.186070 27.988742 10.101937 -2.623294 -25.998416 0.000000 0.000000 0.000000 29.912097 13.027597 1.787136 10.846609 -13.184714 -0.896527 22.065514 7.246184 0.519408 0.000000 0.000000 0.000000 -20.656642 -17.305906 -4.462297 -6.973232 -2.382525 1.338875 -11.019465 2.413978 0.258977 0.000000 0.000000 0.000000 
-0.182369 0.960564 -0.762657 -2.050769 -10.031397 1.120030 11.343580 0.168199 -0.539615 -0.941466 0.114507 0.380318 11.036465 20.803368 20.102471 0.000000 0.000000 0.000000 -9.546433 0.563230 -4.197360 3.254147 -0.160655 5.718286 -5.854000 -16.395130 10.211712 0.000000 0.000000 0.000000 6.481269 -0.431670 3.964979 -1.755972 1.290193 -35.153964 0.500731 16.514129 28.679201 9.684594 -2.251617 -26.507733 0.000000 0.000000 0.000000 33.463149 13.022803 2.353326 13.006611 -12.916188 -0.873271 21.293548 11.359307 1.043799 0.000000 0.000000 0.000000 -23.098627 -18.141002 -4.500083 -10.128643 -1.865400 1.854232 -12.775617 0.009534 0.487032 0.000000 0.000000 0.000000 
-0.183187 0.959367 -0.757217 -1.899506 -10.145820 0.794450 11.176546 0.173443 0.398873 -1.167642 0.151974 0.000454 10.645350 20.366692 18.843314 0.000000 0.000000 0.000000 -9.518941 0.537956 -3.021584 2.995137 -0.139397 5.249653 -6.002321 -16.560564 9.750917 0.000000 0.000000 0.000000 6.008011 -0.332260 3.116945 -1.183911 1.235795 -35.588324 0.656352 16.800466 28.215741 9.497036 -2.237161 -25.606200 0.000000 0.000000 0.000000 35.715930 13.326651 2.789783 15.667916 -13.932501 -1.183230 22.191609 13.554364 1.372793 0.000000 0.000000 0.000000 -25.329035 -18.253300 -4.321577 -12.329295 -0.887214 2.092930 -13.755211 -1.240685 0.646285 0.000000 0.000000 0.000000 
-0.183302 0.958793 -0.752102 -1.942605 -10.660204 0.427996 11.253176 0.203983 1.144368 -1.551706 0.199621 0.305043 10.040414 19.524741 18.202653 0.000000 0.000000 0.000000 -9.439886 0.526045 -2.166176 2.620503 -0.085516 5.327645 -6.178394 -16.906302 9.877589 0.000000 0.000000 0.000000 6.215266 -0.279335 2.581751 -1.209140 1.259201 -35.819281 0.849959 16.943583 28.109107 8.976801 -1.967756 -25.443632 0.000000 0.000000 0.000000 38.000173 13.848842 3.075447 17.318991 -15.008710 -1.503946 24.186534 15.716756 1.850641 0.000000 0.000000 0.000000 -27.999289 -18.905570 -3.986010 -13.311623 0.583843 1.954579 -16.442989 -1.419950 0.832317 0.000000 0.000000 0.000000 
-0.182518 0.958210 -0.747247 -1.900076 -10.708295 -0.242645 11.273576 0.225741 1.657845 -1.742857 0.223437 0.495765 9.964081 19.449217 17.868034 0.000000 0.000000 0.000000 -9.715393 0.512208 -1.017284 2.526660 -0.069727 5.478964 -6.298629 -17.113948 9.954289 0.000000 0.000000 0.000000 6.257948 -0.251237 2.429850 -0.974298 1.311622 -37.129380 1.007048 17.499915 28.844101 8.571126 -1.618820 -25.487443 0.000000 0.000000 0.000000 39.393217 13.773852 3.401533 18.822286 -15.938793 -1.876698 28.025353 16.515201 2.238281 0.000000 0.000000 0.000000 -29.973510 -19.388653 -3.922665 -13.331585 2.586087 1.593174 -21.336266 -0.616629 1.094738 0.000000 0.000000 0.000000 
